<svg id="logo" xmlns="http://www.w3.org/2000/svg" viewBox="0 0 500 500"><defs><style>.cls-1{fill:#9d9da0;}.cls-2{fill:#fff;}.cls-3{fill:#2d2d2d;}</style></defs><path class="cls-1" d="M250,35.44S169.33,37,156.11,111c0,0,1.32,113.72,25.13,175.88l11.6,15.4S166.9,327,149.6,334s-50.35,11-67.54,26.91L67.51,377s64.8,52.77,120.34,70c0,0,46.28,15.47,62.15,17.65Z"/><path class="cls-2" d="M193.14,195.65l38.35,19.84s-11.91,14.54-25.13,7.93C206.36,223.42,190.49,218.13,193.14,195.65Z"/><polygon points="111.15 261.77 77.27 273.5 76.77 273.67 75.8 271.04 23.87 129.53 58.03 117.71 58.25 117.63 60.9 124.84 109.96 258.52 111.15 261.77"/><polygon class="cls-1" points="130.38 315.86 96.05 327.89 78.09 278.96 112.25 267.14 112.47 267.06 115.12 274.27 130.38 315.86"/><polygon class="cls-3" points="149.6 265 117.56 276.74 79.21 290.79 47.78 302.3 40.96 283.67 71.83 272.36 72.31 272.18 105.99 259.84 110.14 258.32 142.78 246.37 149.6 265"/><path d="M250,35.44S330.67,37,343.89,111c0,0-1.32,113.72-25.13,175.88l-11.6,15.4S333.1,327,350.4,334s50.35,11,67.54,26.91l14.55,16s-64.8,52.77-120.34,70c0,0-46.28,15.47-62.15,17.65Z"/><path class="cls-2" d="M306.86,195.65l-38.35,19.84s11.91,14.54,25.13,7.93C293.64,223.42,309.51,218.13,306.86,195.65Z"/><polygon points="388.85 261.77 422.73 273.5 423.23 273.67 424.2 271.04 476.13 129.53 441.97 117.71 441.75 117.63 439.1 124.84 390.04 258.52 388.85 261.77"/><polygon points="369.62 315.86 403.95 327.89 421.91 278.96 387.75 267.14 387.53 267.06 384.88 274.27 369.62 315.86"/><polygon points="350.4 265 382.44 276.74 420.79 290.79 452.22 302.3 459.04 283.67 428.17 272.36 427.69 272.18 394.01 259.84 389.86 258.32 357.22 246.37 350.4 265"/></svg>