<svg id="Layer_1" data-name="Layer 1" xmlns="http://www.w3.org/2000/svg" viewBox="0 0 32 32"><defs><style>.cls-1{fill:#fff;fill-rule:evenodd;}</style></defs><path class="cls-1" d="M16,2.06a14.3,14.3,0,0,0-4.52,27.86c.72.13,1-.31,1-.69s0-1.24,0-2.43c-4,.86-4.82-1.92-4.82-1.92A3.78,3.78,0,0,0,6,22.79c-1.29-.89.1-.87.1-.87a3,3,0,0,1,2.19,1.47,3,3,0,0,0,4.16,1.19,3.06,3.06,0,0,1,.91-1.91c-3.17-.36-6.51-1.59-6.51-7.06a5.54,5.54,0,0,1,1.47-3.84A5.11,5.11,0,0,1,8.49,8s1.2-.39,3.93,1.46a13.59,13.59,0,0,1,7.16,0C22.31,7.6,23.51,8,23.51,8a5.11,5.11,0,0,1,.14,3.78,5.49,5.49,0,0,1,1.47,3.84c0,5.49-3.34,6.7-6.53,7.05a3.38,3.38,0,0,1,1,2.65c0,1.91,0,3.45,0,3.92s.26.83,1,.69A14.3,14.3,0,0,0,16,2.06Z"/></svg>